<svg width="65" height="65" viewBox="0 0 65 65" fill="none" xmlns="http://www.w3.org/2000/svg">
<path fill-rule="evenodd" clip-rule="evenodd" d="M3.80029 32.5004C3.80029 24.8888 6.824 17.589 12.2062 12.2067C17.5885 6.82449 24.8883 3.80078 32.5 3.80078C40.1116 3.80078 47.4115 6.82449 52.7937 12.2067C58.1759 17.589 61.1996 24.8888 61.1996 32.5004C61.1996 40.1121 58.1759 47.4119 52.7937 52.7942C47.4115 58.1764 40.1116 61.2001 32.5 61.2001C24.8883 61.2001 17.5885 58.1764 12.2062 52.7942C6.824 47.4119 3.80029 40.1121 3.80029 32.5004ZM32.5 7.91745C27.7351 7.91761 23.073 9.30252 19.0808 11.9037C15.0885 14.5049 11.9383 18.2102 10.0133 22.5689C8.08829 26.9276 7.47148 31.7518 8.2379 36.4546C9.00433 41.1574 11.121 45.5362 14.3303 49.0581C16.2784 46.0061 18.9645 43.4944 22.1403 41.7554C25.3162 40.0164 28.8792 39.1061 32.5 39.1088C36.1207 39.1061 39.6838 40.0164 42.8596 41.7554C46.0354 43.4944 48.7215 46.0061 50.6696 49.0581C53.879 45.5362 55.9956 41.1574 56.762 36.4546C57.5284 31.7518 56.9116 26.9276 54.9866 22.5689C53.0616 18.2102 49.9114 14.5049 45.9192 11.9037C41.9269 9.30252 37.2648 7.91761 32.5 7.91745ZM47.5886 51.9095C46.0562 49.2657 43.8553 47.0717 41.2069 45.5474C38.5585 44.0231 35.5557 43.2224 32.5 43.2255C29.4442 43.2224 26.4415 44.0231 23.793 45.5474C21.1446 47.0717 18.9437 49.2657 17.4113 51.9095C21.7223 55.2701 27.0339 57.0915 32.5 57.0835C38.1853 57.0835 43.42 55.1508 47.5886 51.9095ZM22.3166 28.1888C22.3166 25.488 23.3895 22.8978 25.2993 20.9881C27.209 19.0783 29.7992 18.0054 32.5 18.0054C35.2007 18.0054 37.7909 19.0783 39.7007 20.9881C41.6104 22.8978 42.6833 25.488 42.6833 28.1888C42.6833 30.8896 41.6104 33.4797 39.7007 35.3895C37.7909 37.2992 35.2007 38.3721 32.5 38.3721C29.7992 38.3721 27.209 37.2992 25.2993 35.3895C23.3895 33.4797 22.3166 30.8896 22.3166 28.1888ZM32.5 22.1221C31.7033 22.1221 30.9144 22.279 30.1783 22.5839C29.4423 22.8888 28.7735 23.3357 28.2102 23.899C27.6468 24.4623 27.2 25.1311 26.8951 25.8672C26.5902 26.6032 26.4333 27.3921 26.4333 28.1888C26.4333 28.9855 26.5902 29.7744 26.8951 30.5104C27.2 31.2464 27.6468 31.9152 28.2102 32.4786C28.7735 33.0419 29.4423 33.4888 30.1783 33.7937C30.9144 34.0985 31.7033 34.2555 32.5 34.2555C34.1089 34.2555 35.652 33.6163 36.7897 32.4786C37.9275 31.3408 38.5666 29.7978 38.5666 28.1888C38.5666 26.5798 37.9275 25.0367 36.7897 23.899C35.652 22.7613 34.1089 22.1221 32.5 22.1221Z" fill="black"/>
</svg>
