<svg width="229" height="55" viewBox="0 0 229 55" fill="none" xmlns="http://www.w3.org/2000/svg">
<path d="M9.27738 30.3103C9.07863 30.1588 8.88404 30.002 8.69383 29.84C8.82968 30.0578 9.02878 30.2267 9.27738 30.3103ZM10.7459 8.55777H44.1353V28.0916C45.3057 27.4426 45.9343 27.0004 46.365 26.7171V7.43962C46.3647 7.1437 46.2469 6.85999 46.0376 6.65085C45.8282 6.4417 45.5444 6.32422 45.2485 6.32422H9.62938C9.01173 6.32422 8.51123 6.82472 8.51123 7.43962V26.7666C8.93528 27.0339 9.54413 27.4822 10.7459 28.1526V8.55777Z" fill="black"/>
<path d="M48.285 26.3884C47.9973 26.159 47.5991 26.1601 46.9672 26.3884C46.7829 26.4555 46.5965 26.5671 46.3649 26.7184C45.9343 27.0016 45.3062 27.4438 44.1352 28.0928C43.7739 28.2908 43.3801 28.5042 42.9027 28.7435C42.7531 28.8183 42.609 28.8793 42.461 28.9508C39.7699 30.218 37.3493 30.625 37.3493 30.625H29.3331C29.1813 30.625 28.6951 30.7185 28.4619 31.07C28.232 31.4209 28.2705 31.9995 28.2705 31.9995V32.9763C28.5598 33.1814 28.8656 33.3651 29.2027 33.4812C31.6194 34.3051 33.2546 33.5868 33.9679 32.5858C34.8023 31.4121 35.2269 30.7548 36.1432 31.098C37.0595 31.4412 36.1432 33.672 34.9992 34.8177C33.8524 35.9639 32.478 36.8796 30.5332 36.8796C29.7159 36.8796 28.9239 36.757 28.2705 36.6178V44.9399C28.2705 47.2884 30.7664 48.5435 32.4824 48.5435C34.1984 48.5435 37.6342 47.5711 39.2952 43.4488C40.9546 39.3277 39.1825 33.8893 39.1825 33.8893C39.1825 33.8893 41.8709 32.6842 44.6775 30.9116C47.4814 29.1378 48.2278 27.4763 48.285 27.2431C48.34 27.0082 48.5688 26.6183 48.285 26.3884Z" fill="black"/>
<path d="M34.9993 34.8173C36.1433 33.6716 37.0596 31.4408 36.1433 31.0976C35.227 30.7544 34.8024 31.4117 33.968 32.5854C33.2547 33.5864 31.6195 34.3047 29.2028 33.4808C28.8657 33.3647 28.5599 33.181 28.2706 32.9759C27.0771 32.1272 26.2647 30.7544 25.6669 30.7544H17.6506C17.6506 30.7544 15.427 30.3782 12.8744 29.2331C12.6181 29.1176 12.3602 29.0032 12.0984 28.8718C11.642 28.643 11.191 28.4035 10.7459 28.1535C9.54416 27.483 8.93531 27.0353 8.51126 26.7675C8.33471 26.6558 8.18511 26.5722 8.03221 26.5172C7.40301 26.2884 7.00206 26.2884 6.71551 26.5172C6.43061 26.7471 6.65831 27.1376 6.71551 27.3714C6.75951 27.5501 7.21766 28.5726 8.69331 29.8409C9.20752 30.2787 9.7521 30.6795 10.323 31.0404C13.1269 32.8153 15.818 34.017 15.818 34.017C15.818 34.017 14.0432 39.4543 15.7053 43.5766C17.3652 47.6983 20.7999 48.6751 22.517 48.6751C24.2347 48.6751 26.7306 47.4117 26.7306 45.0649V36.1928C26.7306 36.1928 27.3642 36.4238 28.27 36.6169C28.9234 36.756 29.7154 36.8787 30.5327 36.8787C32.4781 36.8792 33.8525 35.9635 34.9993 34.8173ZM33.5594 18.9102C32.2383 18.9104 30.9714 19.4353 30.0371 20.3694C29.1029 21.3036 28.5779 22.5704 28.5775 23.8915C28.5775 26.641 30.8077 28.8723 33.5594 28.8723C36.3083 28.8723 38.538 26.641 38.538 23.8915C38.538 21.1415 36.3083 18.9102 33.5594 18.9102Z" fill="black"/>
<path d="M21.7492 18.9102C18.9992 18.9102 16.77 21.1415 16.77 23.8915C16.77 26.641 18.9986 28.8723 21.7492 28.8723C24.5008 28.8723 26.7311 26.641 26.7311 23.8915C26.7311 21.1415 24.5008 18.9102 21.7492 18.9102Z" fill="black"/>
<path d="M67.992 29.644C65.432 28.7907 63.576 27.756 62.424 26.54C61.2933 25.324 60.728 23.852 60.728 22.124C60.728 20.1827 61.3787 18.6467 62.68 17.516C63.9813 16.3853 65.8053 15.82 68.152 15.82C70.136 15.82 71.864 16.044 73.336 16.492C73.848 16.6413 74.2533 16.9507 74.552 17.42C74.872 17.868 75.032 18.3693 75.032 18.924V19.212C75.032 19.6173 74.8507 19.9373 74.488 20.172C74.1253 20.3853 73.752 20.4173 73.368 20.268C71.768 19.6493 70.136 19.34 68.472 19.34C67.4053 19.34 66.5947 19.5853 66.04 20.076C65.4853 20.5667 65.208 21.2493 65.208 22.124C65.208 23.66 66.2107 24.7587 68.216 25.42C71.096 26.3373 73.0907 27.3827 74.2 28.556C75.3307 29.7293 75.896 31.244 75.896 33.1C75.896 37.58 73.1333 39.82 67.608 39.82C65.88 39.82 64.312 39.5533 62.904 39.02C62.392 38.828 61.9867 38.4973 61.688 38.028C61.4107 37.5587 61.272 37.036 61.272 36.46V36.076C61.272 35.6707 61.4427 35.3827 61.784 35.212C62.1253 35.02 62.4773 35.0093 62.84 35.18C64.248 35.884 65.7307 36.236 67.288 36.236C69.9973 36.236 71.352 35.212 71.352 33.164C71.352 32.332 71.096 31.6493 70.584 31.116C70.072 30.5613 69.208 30.0707 67.992 29.644ZM81.817 39.5C81.3263 39.5 80.8997 39.3187 80.537 38.956C80.1743 38.5933 79.993 38.1667 79.993 37.676V17.324C79.993 16.8333 80.1743 16.4067 80.537 16.044C80.8997 15.6813 81.3263 15.5 81.817 15.5H82.457C82.9477 15.5 83.3743 15.6813 83.737 16.044C84.0997 16.4067 84.281 16.8333 84.281 17.324V29.644C84.281 29.6653 84.2917 29.676 84.313 29.676H84.345L89.209 24.204C89.9983 23.308 91.001 22.86 92.217 22.86H93.561C93.9023 22.86 94.137 23.02 94.265 23.34C94.4143 23.66 94.3717 23.948 94.137 24.204L88.281 30.668C88.1743 30.796 88.1743 30.9347 88.281 31.084L94.201 38.124C94.4357 38.4013 94.4677 38.7 94.297 39.02C94.1477 39.34 93.9023 39.5 93.561 39.5H92.217C91.001 39.5 90.009 39.0307 89.241 38.092L84.345 32.172C84.345 32.1507 84.3343 32.14 84.313 32.14C84.2917 32.14 84.281 32.1507 84.281 32.172V37.676C84.281 38.1667 84.0997 38.5933 83.737 38.956C83.3743 39.3187 82.9477 39.5 82.457 39.5H81.817ZM100.648 39.5C100.158 39.5 99.7309 39.3187 99.3683 38.956C99.0056 38.5933 98.8243 38.1667 98.8243 37.676V24.684C98.8243 24.1933 99.0056 23.7667 99.3683 23.404C99.7309 23.0413 100.158 22.86 100.648 22.86H101.48C101.971 22.86 102.398 23.0413 102.76 23.404C103.123 23.7667 103.304 24.1933 103.304 24.684V37.676C103.304 38.1667 103.123 38.5933 102.76 38.956C102.398 39.3187 101.971 39.5 101.48 39.5H100.648ZM100.648 19.34C100.158 19.34 99.7309 19.1587 99.3683 18.796C99.0056 18.4333 98.8243 18.0067 98.8243 17.516V17.324C98.8243 16.8333 99.0056 16.4067 99.3683 16.044C99.7309 15.6813 100.158 15.5 100.648 15.5H101.48C101.971 15.5 102.398 15.6813 102.76 16.044C103.123 16.4067 103.304 16.8333 103.304 17.324V17.516C103.304 18.0067 103.123 18.4333 102.76 18.796C102.398 19.1587 101.971 19.34 101.48 19.34H100.648ZM110.836 39.5C110.345 39.5 109.918 39.3187 109.556 38.956C109.193 38.5933 109.012 38.1667 109.012 37.676V17.324C109.012 16.8333 109.193 16.4067 109.556 16.044C109.918 15.6813 110.345 15.5 110.836 15.5H111.668C112.158 15.5 112.585 15.6813 112.948 16.044C113.31 16.4067 113.492 16.8333 113.492 17.324V37.676C113.492 38.1667 113.31 38.5933 112.948 38.956C112.585 39.3187 112.158 39.5 111.668 39.5H110.836ZM121.023 39.5C120.533 39.5 120.106 39.3187 119.743 38.956C119.381 38.5933 119.199 38.1667 119.199 37.676V17.324C119.199 16.8333 119.381 16.4067 119.743 16.044C120.106 15.6813 120.533 15.5 121.023 15.5H121.855C122.346 15.5 122.773 15.6813 123.135 16.044C123.498 16.4067 123.679 16.8333 123.679 17.324V37.676C123.679 38.1667 123.498 38.5933 123.135 38.956C122.773 39.3187 122.346 39.5 121.855 39.5H121.023ZM133.788 29.132V35.852C133.788 36.0227 133.884 36.1293 134.076 36.172C134.822 36.2787 135.526 36.332 136.188 36.332C137.958 36.332 139.249 36.012 140.06 35.372C140.892 34.7107 141.308 33.708 141.308 32.364C141.308 31.1693 140.828 30.2947 139.868 29.74C138.929 29.164 137.361 28.876 135.164 28.876H134.044C133.873 28.876 133.788 28.9613 133.788 29.132ZM133.788 19.788V25.26C133.788 25.452 133.873 25.548 134.044 25.548H134.972C136.956 25.548 138.385 25.2813 139.26 24.748C140.156 24.1933 140.604 23.3827 140.604 22.316C140.604 21.292 140.241 20.5347 139.516 20.044C138.79 19.5533 137.606 19.308 135.964 19.308C135.217 19.308 134.577 19.3507 134.044 19.436C133.873 19.4787 133.788 19.596 133.788 19.788ZM131.164 39.564C130.652 39.5213 130.225 39.308 129.884 38.924C129.542 38.5187 129.372 38.0493 129.372 37.516V18.124C129.372 17.5907 129.542 17.132 129.884 16.748C130.225 16.3427 130.662 16.1187 131.196 16.076C132.774 15.9053 134.3 15.82 135.772 15.82C141.745 15.82 144.732 17.772 144.732 21.676C144.732 22.9773 144.294 24.108 143.42 25.068C142.545 26.028 141.393 26.6467 139.964 26.924C139.942 26.924 139.932 26.9347 139.932 26.956C139.932 26.9987 139.942 27.02 139.964 27.02C141.713 27.276 143.078 27.9267 144.06 28.972C145.062 29.996 145.564 31.2653 145.564 32.78C145.564 35.1267 144.796 36.8867 143.26 38.06C141.724 39.2333 139.334 39.82 136.092 39.82C134.47 39.82 132.828 39.7347 131.164 39.564ZM150.688 39.5C150.198 39.5 149.771 39.3187 149.408 38.956C149.046 38.5933 148.864 38.1667 148.864 37.676V24.684C148.864 24.1933 149.046 23.7667 149.408 23.404C149.771 23.0413 150.198 22.86 150.688 22.86H151.328C151.819 22.86 152.246 23.0413 152.608 23.404C152.971 23.7667 153.152 24.1933 153.152 24.684V26.028C153.152 26.0493 153.163 26.06 153.184 26.06C153.227 26.06 153.248 26.0493 153.248 26.028C153.867 25.1747 154.678 24.4813 155.68 23.948C156.683 23.3933 157.782 23.052 158.976 22.924C159.424 22.8813 159.808 23.0307 160.128 23.372C160.448 23.692 160.608 24.076 160.608 24.524C160.608 24.972 160.448 25.356 160.128 25.676C159.808 25.996 159.424 26.1773 158.976 26.22C155.2 26.5187 153.312 28.4387 153.312 31.98V37.676C153.312 38.1667 153.131 38.5933 152.768 38.956C152.406 39.3187 151.979 39.5 151.488 39.5H150.688ZM167.18 39.5C166.689 39.5 166.262 39.3187 165.9 38.956C165.537 38.5933 165.356 38.1667 165.356 37.676V24.684C165.356 24.1933 165.537 23.7667 165.9 23.404C166.262 23.0413 166.689 22.86 167.18 22.86H168.012C168.502 22.86 168.929 23.0413 169.292 23.404C169.654 23.7667 169.836 24.1933 169.836 24.684V37.676C169.836 38.1667 169.654 38.5933 169.292 38.956C168.929 39.3187 168.502 39.5 168.012 39.5H167.18ZM167.18 19.34C166.689 19.34 166.262 19.1587 165.9 18.796C165.537 18.4333 165.356 18.0067 165.356 17.516V17.324C165.356 16.8333 165.537 16.4067 165.9 16.044C166.262 15.6813 166.689 15.5 167.18 15.5H168.012C168.502 15.5 168.929 15.6813 169.292 16.044C169.654 16.4067 169.836 16.8333 169.836 17.324V17.516C169.836 18.0067 169.654 18.4333 169.292 18.796C168.929 19.1587 168.502 19.34 168.012 19.34H167.18ZM182.152 25.74C179.699 25.74 178.472 27.5533 178.472 31.18C178.472 32.9933 178.803 34.3587 179.464 35.276C180.125 36.172 181.021 36.62 182.152 36.62C183.155 36.62 184.019 36.2893 184.744 35.628C185.469 34.9667 185.832 34.2093 185.832 33.356V29.004C185.832 28.1507 185.469 27.3933 184.744 26.732C184.019 26.0707 183.155 25.74 182.152 25.74ZM180.872 39.82C178.973 39.82 177.395 39.052 176.136 37.516C174.877 35.9587 174.248 33.8467 174.248 31.18C174.248 28.428 174.845 26.3053 176.04 24.812C177.256 23.2973 178.867 22.54 180.872 22.54C182.685 22.54 184.285 23.2013 185.672 24.524C185.693 24.5453 185.715 24.556 185.736 24.556C185.757 24.556 185.768 24.5453 185.768 24.524V17.324C185.768 16.8333 185.949 16.4067 186.312 16.044C186.675 15.6813 187.101 15.5 187.592 15.5H188.232C188.723 15.5 189.149 15.6813 189.512 16.044C189.875 16.4067 190.056 16.8333 190.056 17.324V37.676C190.056 38.1667 189.875 38.5933 189.512 38.956C189.149 39.3187 188.723 39.5 188.232 39.5H187.88C187.368 39.5 186.931 39.3293 186.568 38.988C186.227 38.6253 186.045 38.188 186.024 37.676L185.992 37.452C185.992 37.4307 185.981 37.42 185.96 37.42C185.939 37.42 185.917 37.4307 185.896 37.452C184.488 39.0307 182.813 39.82 180.872 39.82ZM201.43 25.74C199.083 25.74 197.91 27.4467 197.91 30.86C197.91 32.6307 198.219 33.9533 198.838 34.828C199.478 35.7027 200.342 36.14 201.43 36.14C202.39 36.14 203.211 35.7987 203.894 35.116C204.598 34.4333 204.95 33.6333 204.95 32.716V29.26C204.95 28.2787 204.598 27.4467 203.894 26.764C203.211 26.0813 202.39 25.74 201.43 25.74ZM200.086 39.34C198.208 39.34 196.672 38.5933 195.478 37.1C194.283 35.5853 193.686 33.5053 193.686 30.86C193.686 28.2147 194.251 26.1667 195.382 24.716C196.534 23.2653 198.102 22.54 200.086 22.54C201.088 22.54 201.974 22.7213 202.742 23.084C203.51 23.4467 204.267 24.0547 205.014 24.908C205.035 24.9293 205.056 24.94 205.078 24.94C205.099 24.94 205.11 24.9293 205.11 24.908V24.684C205.131 24.172 205.323 23.7453 205.686 23.404C206.048 23.0413 206.486 22.86 206.998 22.86H207.35C207.84 22.86 208.256 23.0413 208.597 23.404C208.96 23.7667 209.142 24.1933 209.142 24.684V38.22C209.142 43.98 206.262 46.86 200.502 46.86C199.478 46.86 198.4 46.7747 197.27 46.604C196.758 46.5187 196.331 46.2627 195.99 45.836C195.67 45.4307 195.51 44.9613 195.51 44.428C195.51 44.0013 195.68 43.66 196.022 43.404C196.384 43.1693 196.779 43.1053 197.206 43.212C198.23 43.468 199.296 43.596 200.406 43.596C201.984 43.596 203.136 43.18 203.862 42.348C204.587 41.5373 204.95 40.1933 204.95 38.316V37.324C204.95 37.3027 204.939 37.292 204.918 37.292C204.896 37.292 204.875 37.3027 204.854 37.324C203.574 38.668 201.984 39.34 200.086 39.34ZM220.336 25.516C219.248 25.516 218.405 25.8253 217.808 26.444C217.232 27.0413 216.869 28.012 216.72 29.356C216.72 29.5267 216.805 29.612 216.976 29.612H223.248C223.418 29.612 223.504 29.5267 223.504 29.356C223.418 26.796 222.362 25.516 220.336 25.516ZM221.136 39.82C218.341 39.82 216.186 39.0947 214.672 37.644C213.178 36.172 212.432 34.0173 212.432 31.18C212.432 28.364 213.104 26.22 214.448 24.748C215.792 23.276 217.733 22.54 220.272 22.54C225.008 22.54 227.44 25.228 227.568 30.604C227.589 31.116 227.408 31.5427 227.024 31.884C226.64 32.2253 226.192 32.396 225.68 32.396H216.944C216.752 32.396 216.677 32.492 216.72 32.684C216.869 34.1133 217.338 35.1587 218.128 35.82C218.938 36.46 220.112 36.78 221.648 36.78C222.608 36.78 223.674 36.62 224.848 36.3C225.232 36.1933 225.584 36.2573 225.904 36.492C226.245 36.7267 226.416 37.0467 226.416 37.452C226.416 37.9427 226.266 38.38 225.968 38.764C225.69 39.1267 225.317 39.3507 224.848 39.436C223.653 39.692 222.416 39.82 221.136 39.82Z" fill="black"/>
</svg>
