<svg width="18" height="15" viewBox="0 0 18 15" fill="none" xmlns="http://www.w3.org/2000/svg">
<path d="M6 7.25H1.5825C1.72189 6.32176 2.05334 5.43279 2.55569 4.63987C3.05804 3.84696 3.72024 3.16754 4.5 2.645L5.8425 1.745L5.0175 0.5L3.675 1.4C2.54496 2.15306 1.61828 3.17342 0.977199 4.37054C0.336117 5.56766 0.000455315 6.90453 0 8.2625V13.25C0 13.6478 0.158035 14.0294 0.43934 14.3107C0.720644 14.592 1.10218 14.75 1.5 14.75H6C6.39782 14.75 6.77936 14.592 7.06066 14.3107C7.34196 14.0294 7.5 13.6478 7.5 13.25V8.75C7.5 8.35218 7.34196 7.97064 7.06066 7.68934C6.77936 7.40804 6.39782 7.25 6 7.25ZM16.5 7.25H12.0825C12.2219 6.32176 12.5533 5.43279 13.0557 4.63987C13.558 3.84696 14.2202 3.16754 15 2.645L16.3425 1.745L15.525 0.5L14.175 1.4C13.045 2.15306 12.1183 3.17342 11.4772 4.37054C10.8361 5.56766 10.5005 6.90453 10.5 8.2625V13.25C10.5 13.6478 10.658 14.0294 10.9393 14.3107C11.2206 14.592 11.6022 14.75 12 14.75H16.5C16.8978 14.75 17.2794 14.592 17.5607 14.3107C17.842 14.0294 18 13.6478 18 13.25V8.75C18 8.35218 17.842 7.97064 17.5607 7.68934C17.2794 7.40804 16.8978 7.25 16.5 7.25Z" fill="black"/>
</svg>
