<svg width="55" height="55" viewBox="0 0 55 55" fill="none" xmlns="http://www.w3.org/2000/svg">
<path d="M9.27738 30.3103C9.07863 30.1588 8.88404 30.002 8.69383 29.84C8.82968 30.0578 9.02878 30.2267 9.27738 30.3103ZM10.7459 8.55777H44.1353V28.0916C45.3057 27.4426 45.9343 27.0004 46.365 26.7171V7.43962C46.3647 7.1437 46.2469 6.85999 46.0376 6.65085C45.8282 6.4417 45.5444 6.32422 45.2485 6.32422H9.62938C9.01173 6.32422 8.51123 6.82472 8.51123 7.43962V26.7666C8.93528 27.0339 9.54413 27.4822 10.7459 28.1526V8.55777Z" fill="black"/>
<path d="M48.285 26.3884C47.9973 26.159 47.5991 26.1601 46.9672 26.3884C46.7829 26.4555 46.5965 26.5671 46.3649 26.7184C45.9343 27.0016 45.3062 27.4438 44.1352 28.0928C43.7739 28.2908 43.3801 28.5042 42.9027 28.7435C42.7531 28.8183 42.609 28.8793 42.461 28.9508C39.7699 30.218 37.3493 30.625 37.3493 30.625H29.3331C29.1813 30.625 28.6951 30.7185 28.4619 31.07C28.232 31.4209 28.2705 31.9995 28.2705 31.9995V32.9763C28.5598 33.1814 28.8656 33.3651 29.2027 33.4812C31.6194 34.3051 33.2546 33.5868 33.9679 32.5858C34.8023 31.4121 35.2269 30.7548 36.1432 31.098C37.0595 31.4412 36.1432 33.672 34.9992 34.8177C33.8524 35.9639 32.478 36.8796 30.5332 36.8796C29.7159 36.8796 28.9239 36.757 28.2705 36.6178V44.9399C28.2705 47.2884 30.7664 48.5435 32.4824 48.5435C34.1984 48.5435 37.6342 47.5711 39.2952 43.4488C40.9546 39.3277 39.1825 33.8893 39.1825 33.8893C39.1825 33.8893 41.8709 32.6842 44.6775 30.9116C47.4814 29.1378 48.2278 27.4763 48.285 27.2431C48.34 27.0082 48.5688 26.6183 48.285 26.3884Z" fill="black"/>
<path d="M34.9993 34.8173C36.1433 33.6716 37.0596 31.4408 36.1433 31.0976C35.227 30.7544 34.8024 31.4117 33.968 32.5854C33.2547 33.5864 31.6195 34.3047 29.2028 33.4808C28.8657 33.3647 28.5599 33.181 28.2706 32.9759C27.0771 32.1272 26.2647 30.7544 25.6669 30.7544H17.6506C17.6506 30.7544 15.427 30.3782 12.8744 29.2331C12.6181 29.1176 12.3602 29.0032 12.0984 28.8718C11.642 28.643 11.191 28.4035 10.7459 28.1535C9.54416 27.483 8.93531 27.0353 8.51126 26.7675C8.33471 26.6558 8.18511 26.5722 8.03221 26.5172C7.40301 26.2884 7.00206 26.2884 6.71551 26.5172C6.43061 26.7471 6.65831 27.1376 6.71551 27.3714C6.75951 27.5501 7.21766 28.5726 8.69331 29.8409C9.20752 30.2787 9.7521 30.6795 10.323 31.0404C13.1269 32.8153 15.818 34.017 15.818 34.017C15.818 34.017 14.0432 39.4543 15.7053 43.5766C17.3652 47.6983 20.7999 48.6751 22.517 48.6751C24.2347 48.6751 26.7306 47.4117 26.7306 45.0649V36.1928C26.7306 36.1928 27.3642 36.4238 28.27 36.6169C28.9234 36.756 29.7154 36.8787 30.5327 36.8787C32.4781 36.8792 33.8525 35.9635 34.9993 34.8173ZM33.5594 18.9102C32.2383 18.9104 30.9714 19.4353 30.0371 20.3694C29.1029 21.3036 28.5779 22.5704 28.5775 23.8915C28.5775 26.641 30.8077 28.8723 33.5594 28.8723C36.3083 28.8723 38.538 26.641 38.538 23.8915C38.538 21.1415 36.3083 18.9102 33.5594 18.9102Z" fill="black"/>
<path d="M21.7492 18.9102C18.9992 18.9102 16.77 21.1415 16.77 23.8915C16.77 26.641 18.9986 28.8723 21.7492 28.8723C24.5008 28.8723 26.7311 26.641 26.7311 23.8915C26.7311 21.1415 24.5008 18.9102 21.7492 18.9102Z" fill="black"/>
</svg>
